# xmcd
#
# Track frame offsets:
#	150
#	16587
#	30582
#	43562
#	57305
#	70317
#	90204
#	104225
#	118995
#	134622
#	150692
#
# Disc length: 2236 seconds
#
# Revision: 1
# Processed by: cddbd v1.5.1PL0 Copyright (c) Steve Scherf et al.
# Submitted via: audiograbber 1.80
#
DISCID=9108ba0b
DTITLE=Mister Jack and the Daniels - Recommended
DYEAR=1900
DGENRE=
TTITLE0=Where To From Here
TTITLE1=Tell Him You're In Love With Me
TTITLE2=Country Mile
TTITLE3=Heart To Rely On
TTITLE4=Just Another Day
TTITLE5=This Love
TTITLE6=Little My Mari
TTITLE7=Better Man
TTITLE8=Puttin' Me Down
TTITLE9=Over The Table
TTITLE10=When I See You Smile
EXTD=
EXTT0=
EXTT1=
EXTT2=
EXTT3=
EXTT4=
EXTT5=
EXTT6=
EXTT7=
EXTT8=
EXTT9=
EXTT10=
PLAYORDER=
